<?xml version="1.0" encoding="UTF-8"?>
<svg width="460px" height="309px" viewBox="0 0 460 309" version="1.1" xmlns="http://www.w3.org/2000/svg" xmlns:xlink="http://www.w3.org/1999/xlink" preserveAspectRatio="xMidYMid">
    <g>
        <path fill="currentColor" d="M120.81043,80.5613102 L217.378325,80.5613102 L217.378325,88.2366589 L129.662487,88.2366589 L129.662487,146.003758 L212.147564,146.003758 L212.147564,153.679106 L129.662487,153.679106 L129.662487,217.101725 L218.384241,217.101725 L218.384241,224.777073 L120.81043,224.777073 L120.81043,80.5613102 Z M226.0292,80.5613102 L236.289538,80.5613102 L281.756922,143.983929 L328.230222,80.5613102 L391.441486,0 L287.591232,150.649363 L341.105941,224.777073 L330.443237,224.777073 L281.756922,157.314798 L232.869425,224.777073 L222.407904,224.777073 L276.324978,150.649363 L226.0292,80.5613102 Z M344.928421,88.2366588 L344.928421,80.5613102 L454.975585,80.5613102 L454.975585,88.2366589 L404.27744,88.2366589 L404.27744,224.777073 L395.425382,224.777073 L395.425382,88.2366589 L344.928421,88.2366588 Z M1.42108547e-14,80.5613102 L11.0650714,80.5613102 L163.64593,308.884007 L100.591558,224.777073 L9.25442331,91.4683847 L8.85205708,224.777073 L1.42108547e-14,224.777073 L1.42108547e-14,80.5613102 Z M454.083705,214.785469 C452.275167,214.785469 450.918762,213.38418 450.918762,211.573285 C450.918762,209.762388 452.275167,208.361099 454.083705 Z"></path>
    </g>
</svg>
